<!DOCTYPE svg PUBLIC "-//W3C//DTD SVG 1.1//EN" "http://www.w3.org/Graphics/SVG/1.1/DTD/svg11.dtd">
<!-- Uploaded to: SVG Repo, www.svgrepo.com, Transformed by: SVG Repo Mixer Tools -->
<svg width="169px" height="169px" viewBox="0 0 48 48" id="b" xmlns="http://www.w3.org/2000/svg" fill="#fff" stroke="#fff">
<g id="SVGRepo_bgCarrier" stroke-width="0"/>
<g id="SVGRepo_tracerCarrier" stroke-linecap="round" stroke-linejoin="round"/>
<g id="SVGRepo_iconCarrier">
<defs>
<style>.c{fill:none;stroke:#fffff;stroke-linecap:round;stroke-linejoin:round;}</style>
</defs>
<path class="c" d="m25.1632,24.0001l-6.4226.0002c-2.2092,0-4.0001-1.7908-4.0001-4v-6.2408c-5.9583,0-10.7281,5.0886-10.2006,11.1571.4645,5.3438,5.1762,9.3239,10.5401,9.3239h14.0832v-6.2404c0-2.2092-1.7909-4.0001-4.0001-4Z"/>
<path class="c" d="m22.8368,23.9999l6.4226-.0002c2.2092,0,4.0001,1.7908,4.0001,4v6.2408c5.9583,0,10.7281-5.0886,10.2006-11.1571-.4645-5.3438-5.1762-9.3239-10.5401-9.3239h-14.0832v6.2404c0,2.2092,1.7909,4.0001,4.0001,4Z"/>
</g>
</svg>